<?xml version="1.0" standalone="no"?>
<!DOCTYPE svg PUBLIC "-//W3C//DTD SVG 20010904//EN"
 "http://www.w3.org/TR/2001/REC-SVG-20010904/DTD/svg10.dtd">
<svg version="1.0" xmlns="http://www.w3.org/2000/svg"
 width="1161.000000pt" height="1161.000000pt" viewBox="0 0 1161.000000 1161.000000"
 preserveAspectRatio="xMidYMid meet">
<metadata>
Created by potrace 1.14, written by Peter Selinger 2001-2017
</metadata>
<g transform="translate(0.000000,1161.000000) scale(0.100000,-0.100000)"
fill="#000000" stroke="none">
<path d="M9 9933 c0 -23 0 -2271 0 -2298 1 -20 7 -20 444 -20 l442 0 0 -1810
0 -1810 -443 -3 c-412 -2 -442 -3 -443 -20 0 -9 -1 -533 -2 -1165 -1 -758 1
-1147 8 -1148 6 -1 990 -2 2188 -3 l2177 -1 0 1167 0 1168 -472 2 -473 3 0
1173 c0 644 1 1172 2 1172 1 0 41 -53 88 -117 138 -192 435 -597 448 -613 7
-8 41 -56 77 -105 35 -50 68 -94 72 -100 5 -5 26 -35 48 -65 22 -30 43 -59 47
-65 5 -5 51 -68 103 -140 52 -71 98 -134 103 -140 4 -5 108 -147 231 -315 122
-168 257 -352 299 -410 42 -58 83 -114 91 -125 8 -11 44 -60 80 -108 36 -49
66 -93 66 -97 0 -5 3 -10 8 -12 6 -2 179 -235 278 -373 129 -180 328 -445 334
-445 4 0 17 15 28 33 12 17 45 64 74 104 77 104 329 447 428 583 47 65 124
171 172 236 48 65 130 178 182 249 52 72 103 141 113 155 10 13 120 164 245
335 125 170 235 321 245 334 27 36 162 220 268 366 52 72 144 198 205 280 228
310 332 453 374 514 16 22 30 41 31 41 1 0 2 -529 2 -1175 l0 -1175 -468 0
-469 0 -1 -27 c0 -16 -1 -540 -2 -1165 -1 -751 1 -1139 8 -1141 6 -2 989 -3
2185 -3 l2175 1 0 1168 0 1167 -445 0 -445 0 0 1812 0 1813 445 0 445 0 0
1165 0 1165 -1715 3 -1715 2 -18 -22 c-18 -25 -459 -630 -492 -678 -21 -29
-197 -274 -539 -745 -108 -148 -217 -299 -243 -335 -26 -36 -157 -217 -292
-403 -135 -186 -253 -348 -261 -361 -8 -13 -23 -34 -33 -47 -28 -39 -215 -297
-286 -395 -36 -50 -95 -132 -131 -182 -36 -50 -68 -92 -72 -92 -4 0 -157 208
-341 463 -267 368 -540 746 -683 942 -8 11 -54 76 -103 145 -50 69 -94 130
-99 135 -5 6 -26 35 -47 65 -64 91 -109 154 -122 170 -13 16 -459 633 -783
1083 l-185 256 -1717 1 c-1629 0 -1718 -1 -1719 -17z"/>
</g>
</svg>
